<svg id="Layer_1" enable-background="new 0 0 512 512" height="512" viewBox="0 0 512 512" width="512" xmlns="http://www.w3.org/2000/svg"><g><g><g><g><g><g id="XMLID_1211_"><g id="XMLID_1212_"><g id="XMLID_1213_"><g id="XMLID_1214_"><g id="XMLID_1215_"><g id="XMLID_1216_"><g id="XMLID_1217_"><g id="XMLID_1218_"><g id="XMLID_1242_"><g id="XMLID_1243_"><g id="XMLID_1244_"><g id="XMLID_1245_"><g id="XMLID_1246_"><g id="XMLID_1247_"><g id="XMLID_1248_"><circle cx="256" cy="256" fill="#ff936b" r="256"/></g></g></g></g></g></g></g></g></g></g></g></g></g></g></g></g></g></g></g><path d="m335.534 162.959-130.651-7.313-77.776-78.912 128.893 382.047.062-.063 48.587 48.665c118.12-22.724 207.351-126.633 207.351-251.383 0-20.302-2.364-40.052-6.83-58.989l-120.277-120.277z" fill="#ff5c5c"/><g><path d="m384.893 76.734-59.339 71.262 43.75 83.883 81.207 28.95z" fill="#c6bcb7"/><path d="m127.107 76.734 59.339 71.262-43.75 83.883-81.207 28.95z" fill="#eceae7"/><path d="m325.554 147.996h-139.108l-124.957 112.833 194.511 197.952 194.511-197.952z" fill="#fff"/><path d="m450.51 260.83-194.51 197.95v-310.78h69.55z" fill="#eceae7"/></g></g></svg>