<svg id="Capa_1" enable-background="new 0 0 513.403 513.403" height="512" viewBox="0 0 513.403 513.403" width="512" xmlns="http://www.w3.org/2000/svg"><g><path d="m510.034 187.742-50.365-97.883c-7.679-14.922-26.067-20.819-40.99-13.138l-23.437 12.06c-67.234-55.406-160.517-65.477-238.059-25.576-39.243 20.192-71.019 51.319-91.893 90.016-19.692 36.504-28.539 77.403-25.693 118.557l-23.07 11.87c-7.229 3.719-12.578 10.031-15.059 17.773s-1.8 15.987 1.92 23.217l50.365 97.882c5.393 10.48 16.066 16.508 27.114 16.507 4.682 0 9.434-1.083 13.876-3.369l22.702-11.682c32.235 26.83 71.31 43.704 113.107 48.809 8.816 1.076 17.636 1.611 26.426 1.611 34.407 0 68.317-8.197 99.348-24.164 17.462-8.985 33.574-20.219 47.89-33.389 3.048-2.804 3.246-7.549.442-10.598-2.803-3.048-7.548-3.245-10.597-.441-13.327 12.26-28.331 22.72-44.598 31.09-36.274 18.665-76.765 25.93-117.092 21.001-36.796-4.495-71.324-18.775-100.344-41.423l38.187-19.648c.225.174.458.341.707.492 23.674 14.423 50.818 22.712 78.498 23.97 2.46.112 4.917.168 7.376.168 26.072 0 51.966-6.267 75.316-18.281 25.455-13.099 47.116-32.633 62.64-56.492 15.052-23.133 24.13-49.913 26.253-77.446.038-.488.024-.969-.03-1.438l38.269-19.691c2.075 48.597-13.23 96.021-43.564 134.397-2.569 3.249-2.017 7.966 1.233 10.534 1.377 1.089 3.017 1.616 4.646 1.616 2.215 0 4.409-.977 5.889-2.85 34.003-43.017 50.417-96.625 46.376-151.2l23.071-11.871c14.925-7.679 20.818-26.067 13.14-40.99zm-431.543-27.401c19.431-36.021 49.015-64.998 85.555-83.799 70.268-36.155 154.421-28.246 216.584 19.757l-38.276 19.694c-23.032-13.979-49.283-22.176-76.213-23.737-29.248-1.697-58.553 4.531-84.744 18.008-25.664 13.205-47.451 32.936-63.006 57.057-14.907 23.118-23.845 49.806-25.901 77.239l-38.272 19.693c-1.341-36.117 6.97-71.835 24.273-103.912zm303.688 178.159c-14.104 21.677-33.79 39.428-56.93 51.335-23.227 11.952-49.216 17.653-75.148 16.467-22.36-1.016-44.33-7.09-64.05-17.626l219.171-112.773c-2.904 22.264-10.788 43.762-23.043 62.597zm107.853-123.106-402.153 206.925c-7.569 3.893-16.895.906-20.789-6.663l-50.365-97.882c-1.887-3.666-2.232-7.849-.974-11.775s3.971-7.127 7.638-9.014l150.394-77.385c3.683-1.896 5.132-6.417 3.237-10.101-1.895-3.682-6.416-5.131-10.101-3.237l-58.479 30.091c2.997-21.64 10.699-42.514 22.556-60.902 14.132-21.916 33.933-39.845 57.263-51.849 43.452-22.357 95.229-21.865 138.133.604l-129.182 66.47c-3.683 1.896-5.132 6.417-3.237 10.101 1.895 3.683 6.416 5.132 10.101 3.237l221.468-113.955c7.568-3.894 16.895-.906 20.789 6.663l50.365 97.883c3.894 7.568.905 16.895-6.664 20.789z"/><path d="m340.345 242.632-44.367-40.083c-.055-.049-.11-.098-.167-.146-2.725-2.317-6.541-2.758-9.722-1.117s-5.035 5.004-4.725 8.569c.005.061.011.123.018.184l6.649 59.488c.429 3.834 3.675 6.668 7.444 6.668.278 0 .56-.016.842-.048 4.117-.46 7.081-4.17 6.621-8.286l-1.082-9.68 21.231-10.924 7.201 6.506c3.073 2.775 7.816 2.536 10.593-.538 2.778-3.073 2.537-7.815-.536-10.593zm-40.272-.402-1.96-17.536 13.078 11.816z"/><path d="m248.918 228.846c-1.896-3.682-6.417-5.132-10.101-3.237-3.683 1.896-5.132 6.417-3.237 10.101l25.96 50.45c1.331 2.585 3.955 4.07 6.675 4.07 1.155 0 2.328-.269 3.425-.833 3.683-1.896 5.132-6.417 3.237-10.101z"/><path d="m154.492 285.868 7.318-3.766c3.683-1.896 5.132-6.417 3.237-10.101-1.894-3.683-6.415-5.132-10.101-3.237l-27.861 14.336c-3.683 1.895-5.132 6.417-3.237 10.101 1.33 2.585 3.955 4.07 6.675 4.07 1.155 0 2.327-.269 3.425-.833l7.206-3.708 22.528 43.782c1.33 2.585 3.955 4.07 6.675 4.07 1.155 0 2.328-.269 3.425-.833 3.683-1.895 5.132-6.417 3.237-10.101z"/><path d="m243.643 289.795-19.729-7.739c6.847-6.812 8.948-17.299 4.446-26.049-2.752-5.348-7.541-9.23-13.487-10.934-5.752-1.648-11.865-1.04-17.214 1.713l-13.407 6.898c-.002.001-.003.002-.005.003-.004.002-.007.003-.011.005-3.683 1.896-5.132 6.417-3.237 10.101l25.959 50.45c1.331 2.585 3.955 4.07 6.675 4.07 1.155 0 2.328-.269 3.425-.833 3.683-1.896 5.132-6.417 3.237-10.1l-6.853-13.319 24.721 9.698c.9.354 1.826.521 2.737.521 2.995 0 5.824-1.807 6.984-4.763 1.515-3.856-.385-8.208-4.241-9.722zm-39.12-29.67c1.914-.984 4.181-1.217 6.22-.631 1.923.551 3.443 1.75 4.28 3.377 1.796 3.492.024 8.135-3.871 10.139-1.57.809-4.176 2.162-6.669 3.46-1.263-2.425-5.357-10.341-6.677-12.889z"/><path d="m379.501 216.975c-3.336 1.74-7.521 3.915-10.938 5.68l-22.527-43.779c-1.896-3.682-6.417-5.133-10.101-3.237-3.683 1.896-5.132 6.417-3.237 10.101l25.937 50.407c1.314 2.552 3.921 4.069 6.669 4.069.746 0 1.503-.112 2.247-.346.773-.242 1.24-.389 18.888-9.596 3.672-1.916 5.097-6.446 3.181-10.118-1.917-3.671-6.446-5.096-10.119-3.181z"/></g></svg>