<?xml version="1.0" standalone="no"?>
<!DOCTYPE svg PUBLIC "-//W3C//DTD SVG 20010904//EN"
    "http://www.w3.org/TR/2001/REC-SVG-20010904/DTD/svg10.dtd">
<svg version="1.0" xmlns="http://www.w3.org/2000/svg"
     width="400.000000pt" height="400.000000pt" viewBox="0 0 400.000000 400.000000"
     preserveAspectRatio="xMidYMid meet">

    <g transform="translate(0.000000,400.000000) scale(0.100000,-0.100000)"
       fill="#000000" stroke="none">
        <path d="M1502 2943 c-11 -27 -48 -127 -82 -223 -34 -96 -67 -192 -75 -212 -7
-21 -10 -38 -6 -38 9 0 73 129 136 275 26 61 49 112 51 114 1 2 26 -43 55
-100 33 -65 54 -97 57 -86 6 27 -93 317 -109 317 -3 0 -16 -21 -27 -47z"/>
        <path d="M2443 2953 c-6 -21 -23 -69 -37 -108 -31 -83 -59 -185 -53 -192 3 -2
29 43 58 101 30 58 57 102 60 98 4 -4 28 -56 54 -117 51 -119 123 -265 129
-265 9 0 -87 291 -123 375 -5 11 -19 48 -32 83 -13 34 -28 62 -34 62 -6 0 -16
-17 -22 -37z"/>
        <path d="M653 2613 c3 -5 44 -107 92 -228 48 -121 96 -239 106 -262 11 -23 19
-46 19 -50 1 -4 9 -26 20 -48 11 -22 19 -44 20 -48 0 -5 7 -23 15 -40 27 -59
85 -209 85 -221 0 -6 -39 -45 -88 -86 -48 -41 -103 -89 -122 -106 -52 -46
-220 -194 -267 -234 -22 -19 -76 -66 -121 -105 l-80 -70 339 -3 c262 -2 339
-5 339 -15 -1 -11 -48 -52 -244 -211 -38 -31 -66 -56 -62 -56 3 0 50 22 104
49 247 125 553 238 755 280 49 11 93 23 98 28 5 5 20 42 34 83 14 41 30 84 35
95 5 11 14 38 21 60 6 22 15 44 20 50 5 5 9 15 9 21 0 7 5 25 12 41 6 15 12
30 13 33 1 3 4 12 8 20 3 8 10 29 15 45 8 22 11 25 11 10 1 -18 6 -20 42 -17
27 3 45 0 51 -9 6 -10 7 -7 3 10 -7 22 -49 90 -63 101 -4 3 -15 16 -24 31 -26
40 -199 186 -378 317 -91 67 -180 134 -198 149 -114 97 -108 90 -94 113 7 12
12 24 10 25 -2 2 -78 40 -168 83 -382 184 -376 181 -367 165z"/>
        <path d="M3210 2564 c-63 -31 -179 -87 -257 -125 -79 -38 -143 -71 -143 -74 0
-3 6 -14 13 -26 11 -18 8 -24 -23 -51 -19 -17 -48 -43 -65 -57 -16 -15 -55
-45 -85 -66 -198 -137 -469 -356 -490 -396 -6 -9 -17 -25 -26 -34 -26 -26 -61
-81 -69 -106 -4 -17 -3 -20 3 -10 6 9 24 12 51 9 36 -3 41 -1 41 17 1 11 16
-23 34 -75 18 -52 36 -102 39 -110 3 -8 20 -58 37 -110 17 -52 35 -104 40
-115 4 -11 11 -27 13 -37 4 -11 26 -20 64 -28 215 -44 480 -139 741 -266 84
-41 155 -74 158 -74 3 0 -59 53 -138 117 -162 133 -168 138 -168 152 0 7 110
12 344 13 l344 3 -80 70 c-45 39 -99 86 -121 105 -47 40 -215 188 -267 234
-19 17 -74 65 -122 106 -49 41 -88 81 -88 88 0 7 25 77 55 155 31 78 80 205
110 282 30 77 82 209 115 294 33 85 59 158 58 163 -2 4 -55 -17 -118 -48z"/>
        <path d="M1600 2249 c0 -15 59 -105 92 -140 21 -23 77 -49 157 -74 23 -7 24
-6 17 36 -9 53 -42 116 -76 141 -14 10 -52 23 -85 28 -33 6 -70 13 -82 15 -14
3 -23 1 -23 -6z"/>
        <path d="M2310 2244 c-41 -7 -86 -22 -100 -32 -34 -25 -67 -88 -76 -141 -7
-42 -6 -43 17 -36 127 39 153 58 215 151 33 49 42 75 27 73 -5 -1 -42 -7 -83
-15z"/>
        <path d="M1942 1693 c6 -55 96 -65 113 -14 10 33 -2 41 -61 41 -54 0 -55 0
-52 -27z"/>
    </g>
</svg>
